<?xml version="1.0" encoding="UTF-8" standalone="no"?>
<svg viewBox="0 0 30 30" xmlns="http://www.w3.org/2000/svg">
  <!-- Two-tone pixelated rounded tree for top-down view with dark border -->
  
  <!-- Very dark green border - drawn first so it appears behind the tree -->
  <!-- Top border section -->
  <rect x="11" y="4" width="8" height="1" fill="#0A3415"/>
  <rect x="9" y="5" width="2" height="1" fill="#0A3415"/>
  <rect x="18" y="5" width="2" height="1" fill="#0A3415"/>
  <rect x="8" y="6" width="2" height="1" fill="#0A3415"/>
  <rect x="20" y="6" width="2" height="1" fill="#0A3415"/>
  <rect x="7" y="7" width="2" height="1" fill="#0A3415"/>
  <rect x="21" y="7" width="2" height="1" fill="#0A3415"/>
  <rect x="6" y="8" width="2" height="1" fill="#0A3415"/>
  <rect x="22" y="8" width="2" height="1" fill="#0A3415"/>
  <rect x="5" y="9" width="2" height="1" fill="#0A3415"/>
  <rect x="23" y="9" width="2" height="1" fill="#0A3415"/>
  <rect x="4" y="10" width="2" height="1" fill="#0A3415"/>
  <rect x="24" y="10" width="2" height="1" fill="#0A3415"/>
  <rect x="4" y="11" width="2" height="1" fill="#0A3415"/>
  <rect x="24" y="11" width="2" height="1" fill="#0A3415"/>
  <rect x="4" y="12" width="1" height="1" fill="#0A3415"/>
  <rect x="25" y="12" width="1" height="1" fill="#0A3415"/>
  <rect x="4" y="13" width="1" height="1" fill="#0A3415"/>
  <rect x="25" y="13" width="1" height="1" fill="#0A3415"/>
  <rect x="4" y="14" width="1" height="1" fill="#0A3415"/>
  <rect x="25" y="14" width="1" height="1" fill="#0A3415"/>
  <rect x="4" y="15" width="1" height="1" fill="#0A3415"/>
  <rect x="25" y="15" width="1" height="1" fill="#0A3415"/>
  <rect x="4" y="16" width="1" height="1" fill="#0A3415"/>
  <rect x="25" y="16" width="1" height="1" fill="#0A3415"/>
  <rect x="4" y="17" width="1" height="1" fill="#0A3415"/>
  <rect x="25" y="17" width="1" height="1" fill="#0A3415"/>
  <rect x="5" y="18" width="1" height="1" fill="#0A3415"/>
  <rect x="24" y="18" width="1" height="1" fill="#0A3415"/>
  <rect x="5" y="19" width="1" height="1" fill="#0A3415"/>
  <rect x="24" y="19" width="1" height="1" fill="#0A3415"/>
  <rect x="6" y="20" width="1" height="1" fill="#0A3415"/>
  <rect x="23" y="20" width="1" height="1" fill="#0A3415"/>
  <rect x="7" y="21" width="1" height="1" fill="#0A3415"/>
  <rect x="22" y="21" width="1" height="1" fill="#0A3415"/>
  <rect x="8" y="22" width="1" height="1" fill="#0A3415"/>
  <rect x="21" y="22" width="1" height="1" fill="#0A3415"/>
  <rect x="9" y="23" width="1" height="1" fill="#0A3415"/>
  <rect x="20" y="23" width="1" height="1" fill="#0A3415"/>
  <rect x="10" y="24" width="2" height="1" fill="#0A3415"/>
  <rect x="18" y="24" width="2" height="1" fill="#0A3415"/>
  <rect x="12" y="25" width="6" height="1" fill="#0A3415"/>
  
  <!-- Base tree shape using only pixels - main green -->
  <!-- Outer circle -->
  <rect x="12" y="5" width="6" height="1" fill="#2EAA45"/>
  <rect x="10" y="6" width="10" height="1" fill="#2EAA45"/>
  <rect x="9" y="7" width="12" height="1" fill="#2EAA45"/>
  <rect x="8" y="8" width="14" height="1" fill="#2EAA45"/>
  <rect x="7" y="9" width="16" height="1" fill="#2EAA45"/>
  <rect x="6" y="10" width="18" height="1" fill="#2EAA45"/>
  <rect x="6" y="11" width="18" height="1" fill="#2EAA45"/>
  <rect x="5" y="12" width="20" height="1" fill="#2EAA45"/>
  <rect x="5" y="13" width="20" height="1" fill="#2EAA45"/>
  <rect x="5" y="14" width="20" height="1" fill="#2EAA45"/>
  <rect x="5" y="15" width="20" height="1" fill="#2EAA45"/>
  <rect x="5" y="16" width="20" height="1" fill="#2EAA45"/>
  <rect x="5" y="17" width="20" height="1" fill="#2EAA45"/>
  <rect x="6" y="18" width="18" height="1" fill="#2EAA45"/>
  <rect x="6" y="19" width="18" height="1" fill="#2EAA45"/>
  <rect x="7" y="20" width="16" height="1" fill="#2EAA45"/>
  <rect x="8" y="21" width="14" height="1" fill="#2EAA45"/>
  <rect x="9" y="22" width="12" height="1" fill="#2EAA45"/>
  <rect x="10" y="23" width="10" height="1" fill="#2EAA45"/>
  <rect x="12" y="24" width="6" height="1" fill="#2EAA45"/>
  
  <!-- Darker green accents -->
  <!-- Top left darker section -->
  <rect x="10" y="6" width="4" height="1" fill="#1A6B2D"/>
  <rect x="9" y="7" width="4" height="1" fill="#1A6B2D"/>
  <rect x="8" y="8" width="4" height="1" fill="#1A6B2D"/>
  <rect x="7" y="9" width="4" height="1" fill="#1A6B2D"/>
  <rect x="6" y="10" width="4" height="1" fill="#1A6B2D"/>
  <rect x="6" y="11" width="3" height="1" fill="#1A6B2D"/>
  <rect x="5" y="12" width="3" height="1" fill="#1A6B2D"/>
  <rect x="5" y="13" width="3" height="1" fill="#1A6B2D"/>
  
  <!-- Bottom right darker section -->
  <rect x="18" y="17" width="7" height="1" fill="#1A6B2D"/>
  <rect x="19" y="18" width="5" height="1" fill="#1A6B2D"/>
  <rect x="19" y="19" width="5" height="1" fill="#1A6B2D"/>
  <rect x="20" y="20" width="3" height="1" fill="#1A6B2D"/>
  <rect x="20" y="21" width="2" height="1" fill="#1A6B2D"/>
  <rect x="19" y="22" width="2" height="1" fill="#1A6B2D"/>
  
  <!-- Central texture elements -->
  <rect x="12" y="10" width="2" height="2" fill="#1A6B2D"/>
  <rect x="16" y="9" width="2" height="2" fill="#1A6B2D"/>
  <rect x="19" y="13" width="2" height="2" fill="#1A6B2D"/>
  <rect x="15" y="15" width="3" height="2" fill="#1A6B2D"/>
  <rect x="11" y="17" width="2" height="3" fill="#1A6B2D"/>
  <rect x="10" y="13" width="2" height="2" fill="#1A6B2D"/>
</svg>